Coordinates
version=1
nRows=13
nColumns=22
inDegrees=yes

Units are S.I. units (second, meters, Newtons, ...)
If the header above contains a line with 'inDegrees', this indicates whether rotational values are in degrees (yes) or radians (no).

endheader
time	pelvis_tilt	pelvis_list	pelvis_rotation	pelvis_tx	pelvis_ty	pelvis_tz	hip_flexion_r	hip_adduction_r	hip_rotation_r	knee_angle_r	ankle_angle_r	subtalar_angle_r	hip_flexion_l	hip_adduction_l	hip_rotation_l	knee_angle_l	ankle_angle_l	subtalar_angle_l	lumbar_extension	lumbar_bending	lumbar_rotation
      1.05000000	      2.45860859	     -7.19802660	     20.11329850	     -0.82945208	      1.01231645	      0.68526242	      0.79558714	      9.43346908	    -11.63582092	    -14.13094747	     11.83472657	     -0.31051932	     23.61891051	    -10.73497834	     -9.70892238	    -39.98553007	     12.81430873	     -1.71141270	    -16.91505335	      7.28145979	      7.79992117
      1.06000000	      2.50799518	     -7.07833648	     20.68765540	     -0.82436215	      1.01205619	      0.68307710	      0.16885489	      9.41388649	    -11.97070201	    -13.73851361	     12.02296092	     -0.30656657	     24.05357333	    -10.38942695	    -10.28359244	    -38.57960166	     12.62788141	     -1.47302553	    -17.03003767	      7.21224586	      7.89899648
      1.07000000	      2.56472506	     -6.95608367	     21.25247998	     -0.81924523	      1.01175242	      0.68080131	     -0.46762949	      9.39793117	    -12.29899121	    -13.35324380	     12.20742290	     -0.28867561	     24.44640415	    -10.03142420	    -10.85550642	    -37.15847941	     12.40133822	     -1.22693648	    -17.15062484	      7.14398229	      7.99938687
      1.08000000	      2.61485243	     -6.84404078	     21.80845967	     -0.81410632	      1.01135845	      0.67844961	     -1.08375293	      9.39101210	    -12.64388465	    -12.99556576	     12.40924849	     -0.26143107	     24.82663788	     -9.67268112	    -11.42747966	    -35.74460747	     12.14117664	     -1.00936790	    -17.25639963	      7.08467390	      8.09083609
      1.09000000	      2.66985900	     -6.73963837	     22.35634034	     -0.80891699	      1.01088929	      0.67601873	     -1.70507680	      9.39727150	    -12.99507446	    -12.64263978	     12.61422064	     -0.21920312	     25.18147550	     -9.31414856	    -11.99021645	    -34.34742121	     11.85032348	     -0.79899739	    -17.35711422	      7.03142512	      8.18949673
      1.10000000	      2.73702044	     -6.65434577	     22.89230724	     -0.80365984	      1.01033828	      0.67353300	     -2.33696764	      9.43400331	    -13.33703652	    -12.28920652	     12.81646318	     -0.15649463	     25.51472013	     -8.98204638	    -12.56581554	    -32.98731828	     11.55787079	     -0.58462139	    -17.45613390	      6.99974368	      8.27618684
      1.11000000	      2.80172059	     -6.58845403	     23.41416211	     -0.79833037	      1.00968358	      0.67099481	     -2.95597712	      9.49286978	    -13.68439273	    -11.95232085	     13.02475905	     -0.08483088	     25.83996715	     -8.66606364	    -13.13431068	    -31.66802481	     11.27312904	     -0.37640670	    -17.53818541	      6.98073666	      8.36828038
      1.12000000	      2.85237169	     -6.54603000	     23.91669258	     -0.79292006	      1.00890631	      0.66841396	     -3.54676868	      9.57202127	    -14.02892105	    -11.63609987	     13.23248606	     -0.01652508	     26.16966849	     -8.36532393	    -13.68770717	    -30.39326084	     10.99959893	     -0.18438566	    -17.58529705	      6.97033589	      8.47937674
      1.13000000	      2.92945950	     -6.50666391	     24.39742628	     -0.78739901	      1.00807875	      0.66576752	     -4.17186198	      9.66844226	    -14.36110654	    -11.31766032	     13.44604139	      0.07741802	     26.44997992	     -8.09063745	    -14.27622087	    -29.17029413	     10.79906939	      0.04463044	    -17.65197624	      6.96867184	      8.58161379
      1.14000000	      3.03375396	     -6.48869826	     24.84622848	     -0.78173840	      1.00718922	      0.66308014	     -4.82365191	      9.80209433	    -14.64678403	    -11.00177296	     13.65036390	      0.21525553	     26.69087776	     -7.86789676	    -14.90226592	    -28.01266661	     10.70569589	      0.32812531	    -17.72544104	      6.98809129	      8.70016546
      1.15000000	      3.09909753	     -6.47707075	     25.26209399	     -0.77599405	      1.00616970	      0.66032146	     -5.41263261	      9.91572770	    -14.93814790	    -10.74431922	     13.87640766	      0.32116410	     26.93330622	     -7.63389448	    -15.52025578	    -26.88651124	     10.64069137	      0.55386251	    -17.74363900	      6.98722567	      8.84080124
      1.16000000	      3.20036335	     -6.47664415	     25.63688987	     -0.77012072	      1.00512412	      0.65750336	     -6.03868438	     10.05377516	    -15.16681274	    -10.49458896	     14.08967546	      0.47610396	     27.11161589	     -7.45061183	    -16.18641367	    -25.82181549	     10.68151952	      0.82535965	    -17.78660234	      7.00345853	      9.00356065
      1.17000000	      3.29791192	     -6.49132826	     25.97330230	     -0.76411851	      1.00399582	      0.65461748	     -6.64424501	     10.19662280	    -15.35585571	    -10.28734273	     14.30758695	      0.65122445	     27.25980113	     -7.29706509	    -16.87245663	    -24.81137568	     10.77656236	      1.09224208	    -17.80199020	      7.02132217	      9.19125920
